<?xml version="1.0" encoding="UTF-8"?>
<!DOCTYPE svg PUBLIC "-//W3C//DTD SVG 1.1//EN" "http://www.w3.org/Graphics/SVG/1.1/DTD/svg11.dtd">
<svg xmlns="http://www.w3.org/2000/svg" version="1.1" width="300px" height="160px" style="shape-rendering:geometricPrecision; text-rendering:geometricPrecision; image-rendering:optimizeQuality; fill-rule:evenodd; clip-rule:evenodd" xmlns:xlink="http://www.w3.org/1999/xlink">
<g><path style="opacity:1" fill="#000002" d="M -0.5,-0.5 C 36.8333,-0.5 74.1667,-0.5 111.5,-0.5C 111.5,0.5 111.5,1.5 111.5,2.5C 110.209,2.26269 109.209,2.59603 108.5,3.5C 108.062,3.43456 107.728,3.60123 107.5,4C 108.296,6.60156 109.629,8.76822 111.5,10.5C 111.703,12.3904 111.037,13.8904 109.5,15C 110.337,16.0113 110.67,17.1779 110.5,18.5C 109.5,18.5 108.5,18.5 107.5,18.5C 104.81,17.454 102.143,16.454 99.5,15.5C 99.5,19.1667 99.5,22.8333 99.5,26.5C 98.0695,26.5792 96.7362,26.2458 95.5,25.5C 93.1178,27.0707 90.4512,27.904 87.5,28C 86.1955,28.804 85.5288,29.9707 85.5,31.5C 86.6244,35.2519 85.791,38.5852 83,41.5C 80.8662,38.3009 78.0329,35.9676 74.5,34.5C 75.7701,33.7124 76.7701,32.7124 77.5,31.5C 78.6197,29.8762 79.953,28.3762 81.5,27C 79.9145,24.7438 79.2479,22.2438 79.5,19.5C 73.7079,18.0947 68.0412,16.4281 62.5,14.5C 49.5626,15.6026 43.7293,22.6026 45,35.5C 45.5225,40.0713 47.0225,44.238 49.5,48C 33.8413,47.8806 28.8413,55.3806 34.5,70.5C 32.4651,75.688 33.7984,79.688 38.5,82.5C 39.4632,86.1284 39.4632,89.7951 38.5,93.5C 38.6816,96.2263 39.1816,98.8929 40,101.5C 42.6443,103.31 45.1443,105.31 47.5,107.5C 46.1667,109.5 44.8333,111.5 43.5,113.5C 45.3857,119.12 46.0524,124.786 45.5,130.5C 40.8804,131.493 36.2137,131.827 31.5,131.5C 24.9362,130.568 18.4362,129.235 12,127.5C 10.8333,127.833 9.66667,128.167 8.5,128.5C 11.5681,133.459 15.2348,137.959 19.5,142C 13.4289,144.528 7.09559,146.194 0.5,147C 8.33458,151.055 16.6679,153.722 25.5,155C 44.5469,157.906 62.5469,155.072 79.5,146.5C 84.2331,148.744 89.2331,150.411 94.5,151.5C 99.2441,153.442 104.244,154.942 109.5,156C 116.739,156.674 123.739,157.841 130.5,159.5C 86.8333,159.5 43.1667,159.5 -0.5,159.5C -0.5,106.167 -0.5,52.8333 -0.5,-0.5 Z"/></g>
<g><path style="opacity:1" fill="#010104" d="M 111.5,-0.5 C 122.167,-0.5 132.833,-0.5 143.5,-0.5C 143.5,0.833333 143.5,2.16667 143.5,3.5C 139.818,3.3347 136.152,3.50137 132.5,4C 132.182,7.84236 134.182,9.6757 138.5,9.5C 138.5,7.83333 138.5,6.16667 138.5,4.5C 139.5,4.5 140.5,4.5 141.5,4.5C 141.5,6.16667 141.5,7.83333 141.5,9.5C 144.478,8.08469 147.478,7.41802 150.5,7.5C 150.92,9.32599 150.92,11.326 150.5,13.5C 152.167,13.5 153.833,13.5 155.5,13.5C 155.085,11.2532 154.418,9.0865 153.5,7C 153.585,5.8926 153.919,4.8926 154.5,4C 151.833,3.66667 149.167,3.33333 146.5,3C 145.829,2.01381 145.829,0.847141 146.5,-0.5C 151.833,-0.5 157.167,-0.5 162.5,-0.5C 162.5,0.5 162.5,1.5 162.5,2.5C 160.833,2.5 159.167,2.5 157.5,2.5C 156.725,6.18156 158.059,8.68156 161.5,10C 163.657,10.0781 165.657,10.2448 167.5,10.5C 168.298,8.92226 168.798,7.2556 169,5.5C 170.487,6.25286 170.654,7.0862 169.5,8C 173.267,11.6882 175.6,10.8549 176.5,5.5C 177.243,6.90785 178.077,8.24119 179,9.5C 180.395,8.18543 181.395,8.51877 182,10.5C 182.98,8.94105 183.813,7.27439 184.5,5.5C 185.262,6.62826 185.929,7.79492 186.5,9C 187.449,9.61723 188.282,9.45057 189,8.5C 189.617,9.44915 189.451,10.2825 188.5,11C 189.448,11.4828 190.448,11.6495 191.5,11.5C 191.5,8.5 191.5,5.5 191.5,2.5C 183.493,2.66638 175.493,2.49971 167.5,2C 166.748,1.32924 166.414,0.495904 166.5,-0.5C 210.833,-0.5 255.167,-0.5 299.5,-0.5C 299.5,52.8333 299.5,106.167 299.5,159.5C 254.5,159.5 209.5,159.5 164.5,159.5C 183.119,157.037 201.452,153.037 219.5,147.5C 241.694,157.963 264.361,159.296 287.5,151.5C 290.721,150.889 293.721,149.722 296.5,148C 290.441,146.546 284.441,144.879 278.5,143C 280.307,139.359 282.974,136.526 286.5,134.5C 287.799,132.242 288.799,129.908 289.5,127.5C 283.415,128.522 277.415,129.855 271.5,131.5C 264.851,132.38 258.184,132.546 251.5,132C 253.019,130.649 254.352,129.149 255.5,127.5C 254.408,125.817 253.741,123.984 253.5,122C 255.141,118.655 255.641,115.155 255,111.5C 253.647,110.315 252.48,108.981 251.5,107.5C 261.609,101.658 264.275,93.325 259.5,82.5C 262.595,82.3737 264.428,80.707 265,77.5C 265.175,71.3933 266.008,65.3933 267.5,59.5C 264.975,50.1298 258.975,46.2965 249.5,48C 254.513,42.4489 256.179,35.9489 254.5,28.5C 253.646,29.5217 252.646,30.3551 251.5,31C 252.403,33.4711 251.737,35.6378 249.5,37.5C 251.333,38.9684 251.666,40.6351 250.5,42.5C 247.407,37.6605 246.74,38.4938 248.5,45C 246.376,49.774 247.043,54.274 250.5,58.5C 249.132,59.5937 247.965,59.2603 247,57.5C 246.061,54.8791 245.228,52.2125 244.5,49.5C 243.867,52.557 243.534,55.557 243.5,58.5C 242.197,57.2822 241.197,57.6155 240.5,59.5C 239.416,58.3349 238.583,57.0016 238,55.5C 237.781,56.938 237.281,58.2713 236.5,59.5C 236.167,59.3333 235.833,59.1667 235.5,59C 234.857,56.1427 234.524,53.3094 234.5,50.5C 233.516,53.4281 233.183,56.4281 233.5,59.5C 232.178,59.67 231.011,59.3366 230,58.5C 229.709,56.217 230.209,54.0503 231.5,52C 231.167,51.5 230.833,51 230.5,50.5C 227.114,56.838 223.114,57.1713 218.5,51.5C 219.936,50.0663 221.602,48.8996 223.5,48C 221.5,47.6667 219.5,47.3333 217.5,47C 219.614,45.5024 220.114,43.6691 219,41.5C 223.496,36.8309 228.996,34.1642 235.5,33.5C 235.508,36.5448 235.841,39.5448 236.5,42.5C 241.23,40.4206 244.23,36.754 245.5,31.5C 244.197,29.0629 242.53,26.8962 240.5,25C 241.571,24.1482 242.571,23.3149 243.5,22.5C 244.29,21.3915 244.79,20.0581 245,18.5C 248.855,20.5087 251.355,23.5087 252.5,27.5C 252.833,26.8333 253.167,26.1667 253.5,25.5C 250.325,17.816 244.658,14.6493 236.5,16C 240.414,15.1034 240.248,14.6034 236,14.5C 230.76,16.8796 225.26,18.5462 219.5,19.5C 219.84,22.1441 219.173,24.4775 217.5,26.5C 218.32,28.1112 219.654,28.7778 221.5,28.5C 221.157,30.4832 221.824,31.8166 223.5,32.5C 223.804,33.1499 224.137,33.8165 224.5,34.5C 221.222,36.1093 218.556,38.4427 216.5,41.5C 214.417,37.0824 212.75,32.5824 211.5,28C 208.549,27.904 205.882,27.0707 203.5,25.5C 202.252,26.0402 201.085,26.7069 200,27.5C 199.501,23.5138 199.334,19.5138 199.5,15.5C 195.444,17.0252 191.444,18.8585 187.5,21C 180.654,23.2446 173.654,23.9113 166.5,23C 160.838,20.5028 155.172,18.0028 149.5,15.5C 144.035,18.2339 138.369,20.4006 132.5,22C 127.167,22.6667 121.833,22.6667 116.5,22C 112.995,21.8809 109.995,20.7143 107.5,18.5C 108.5,18.5 109.5,18.5 110.5,18.5C 110.67,17.1779 110.337,16.0113 109.5,15C 111.037,13.8904 111.703,12.3904 111.5,10.5C 113.036,8.97493 114.036,6.97493 114.5,4.5C 115.167,6.16667 115.833,7.83333 116.5,9.5C 118.283,7.32087 120.283,7.32087 122.5,9.5C 123.23,7.65874 123.897,5.82541 124.5,4C 119.177,3.50065 113.844,3.33398 108.5,3.5C 109.209,2.59603 110.209,2.26269 111.5,2.5C 111.5,1.5 111.5,0.5 111.5,-0.5 Z"/></g>
<g><path style="opacity:1" fill="#322f6a" d="M 143.5,-0.5 C 144.5,-0.5 145.5,-0.5 146.5,-0.5C 145.829,0.847141 145.829,2.01381 146.5,3C 149.167,3.33333 151.833,3.66667 154.5,4C 153.919,4.8926 153.585,5.8926 153.5,7C 154.418,9.0865 155.085,11.2532 155.5,13.5C 153.833,13.5 152.167,13.5 150.5,13.5C 150.92,11.326 150.92,9.32599 150.5,7.5C 147.478,7.41802 144.478,8.08469 141.5,9.5C 141.5,7.83333 141.5,6.16667 141.5,4.5C 140.5,4.5 139.5,4.5 138.5,4.5C 138.5,6.16667 138.5,7.83333 138.5,9.5C 134.182,9.6757 132.182,7.84236 132.5,4C 136.152,3.50137 139.818,3.3347 143.5,3.5C 143.5,2.16667 143.5,0.833333 143.5,-0.5 Z"/></g>
<g><path style="opacity:1" fill="#37346f" d="M 108.5,3.5 C 113.844,3.33398 119.177,3.50065 124.5,4C 123.897,5.82541 123.23,7.65874 122.5,9.5C 120.283,7.32087 118.283,7.32087 116.5,9.5C 115.833,7.83333 115.167,6.16667 114.5,4.5C 114.036,6.97493 113.036,8.97493 111.5,10.5C 109.629,8.76822 108.296,6.60156 107.5,4C 107.728,3.60123 108.062,3.43456 108.5,3.5 Z"/></g>
<g><path style="opacity:1" fill="#2d2c61" d="M 162.5,-0.5 C 163.833,-0.5 165.167,-0.5 166.5,-0.5C 166.414,0.495904 166.748,1.32924 167.5,2C 175.493,2.49971 183.493,2.66638 191.5,2.5C 191.5,5.5 191.5,8.5 191.5,11.5C 190.448,11.6495 189.448,11.4828 188.5,11C 189.451,10.2825 189.617,9.44915 189,8.5C 188.282,9.45057 187.449,9.61723 186.5,9C 185.929,7.79492 185.262,6.62826 184.5,5.5C 183.813,7.27439 182.98,8.94105 182,10.5C 181.395,8.51877 180.395,8.18543 179,9.5C 178.077,8.24119 177.243,6.90785 176.5,5.5C 175.6,10.8549 173.267,11.6882 169.5,8C 170.654,7.0862 170.487,6.25286 169,5.5C 168.798,7.2556 168.298,8.92226 167.5,10.5C 165.657,10.2448 163.657,10.0781 161.5,10C 158.059,8.68156 156.725,6.18156 157.5,2.5C 159.167,2.5 160.833,2.5 162.5,2.5C 162.5,1.5 162.5,0.5 162.5,-0.5 Z"/></g>
<g><path style="opacity:1" fill="#262654" d="M 243.5,22.5 C 243.465,17.622 241.132,16.2887 236.5,18.5C 236.624,19.1067 236.957,19.44 237.5,19.5C 234.912,20.0876 233.245,21.7543 232.5,24.5C 233.374,26.7466 233.708,29.0799 233.5,31.5C 229.906,32.3426 226.573,32.6759 223.5,32.5C 221.824,31.8166 221.157,30.4832 221.5,28.5C 219.654,28.7778 218.32,28.1112 217.5,26.5C 219.173,24.4775 219.84,22.1441 219.5,19.5C 225.26,18.5462 230.76,16.8796 236,14.5C 240.248,14.6034 240.414,15.1034 236.5,16C 244.658,14.6493 250.325,17.816 253.5,25.5C 253.167,26.1667 252.833,26.8333 252.5,27.5C 251.355,23.5087 248.855,20.5087 245,18.5C 244.79,20.0581 244.29,21.3915 243.5,22.5 Z"/></g>
<g><path style="opacity:1" fill="#282855" d="M 58.5,23.5 C 59.5,23.5 60.5,23.5 61.5,23.5C 60.8283,26.9419 61.8283,29.6086 64.5,31.5C 65.2625,32.2679 66.2625,32.7679 67.5,33C 68.7383,33.69 68.7383,34.19 67.5,34.5C 66.1667,34.5 64.8333,34.5 63.5,34.5C 63.5818,44.3723 61.0818,45.039 56,36.5C 55.3988,34.8632 54.8988,33.1966 54.5,31.5C 55.9824,28.8147 57.3158,26.148 58.5,23.5 Z"/></g>
<g><path style="opacity:1" fill="#070711" d="M 58.5,23.5 C 57.3158,26.148 55.9824,28.8147 54.5,31.5C 54.8988,33.1966 55.3988,34.8632 56,36.5C 61.0818,45.039 63.5818,44.3723 63.5,34.5C 64.8333,34.5 66.1667,34.5 67.5,34.5C 69.2922,35.3091 71.2922,35.8091 73.5,36C 75.4386,36.9078 76.4386,38.4078 76.5,40.5C 78.6807,40.2837 80.3474,41.117 81.5,43C 78.8333,44.3333 78.8333,45.6667 81.5,47C 78.4856,47.1276 75.4856,47.1276 72.5,47C 75.2442,47.8035 77.9109,48.8035 80.5,50C 81.8333,51 81.8333,52 80.5,53C 78.3157,53.8675 76.149,54.7008 74,55.5C 71.7289,54.3993 69.8955,52.7327 68.5,50.5C 68.1667,50.6667 67.8333,50.8333 67.5,51C 68.4585,52.7073 69.1252,54.5406 69.5,56.5C 69.5472,58.0004 68.8805,59.0004 67.5,59.5C 65.5958,47.6632 64.2625,47.6632 63.5,59.5C 60.8096,59.1912 58.143,58.8579 55.5,58.5C 55.4285,55.4029 55.2618,52.0696 55,48.5C 54.6667,48.8333 54.3333,49.1667 54,49.5C 51.9957,46.5254 50.9957,43.1921 51,39.5C 50.0853,40.3279 49.4186,41.3279 49,42.5C 48.6667,42.1667 48.3333,41.8333 48,41.5C 48.0997,38.5128 47.933,35.3461 47.5,32C 47.2742,29.3291 47.9409,26.9958 49.5,25C 49.0426,24.586 48.7093,24.086 48.5,23.5C 50.6239,21.8793 52.6239,20.046 54.5,18C 55.1667,17.3333 55.8333,17.3333 56.5,18C 54.8203,20.8108 55.4869,22.6441 58.5,23.5 Z"/></g>
<g><path style="opacity:1" fill="#2e2d62" d="M 77.5,31.5 C 77.0296,30.3065 76.0296,29.6399 74.5,29.5C 71.2577,29.7833 70.9244,30.6166 73.5,32C 71.1152,32.5564 68.7819,32.3897 66.5,31.5C 64.9521,28.7415 65.2854,26.2415 67.5,24C 64.7717,21.1355 61.4383,19.6355 57.5,19.5C 57.4326,20.9587 57.7659,22.2921 58.5,23.5C 55.4869,22.6441 54.8203,20.8108 56.5,18C 55.8333,17.3333 55.1667,17.3333 54.5,18C 52.6239,20.046 50.6239,21.8793 48.5,23.5C 48.7093,24.086 49.0426,24.586 49.5,25C 47.9409,26.9958 47.2742,29.3291 47.5,32C 47.933,35.3461 48.0997,38.5128 48,41.5C 48.3333,41.8333 48.6667,42.1667 49,42.5C 49.4186,41.3279 50.0853,40.3279 51,39.5C 50.9957,43.1921 51.9957,46.5254 54,49.5C 54.3333,49.1667 54.6667,48.8333 55,48.5C 55.2618,52.0696 55.4285,55.4029 55.5,58.5C 55.44,59.0431 55.1067,59.3764 54.5,59.5C 53.1057,57.016 51.6057,57.016 50,59.5C 48.9701,59.1639 48.4701,58.4972 48.5,57.5C 51.2002,51.684 49.2002,49.5174 42.5,51C 36.8952,51.9417 34.2285,55.2751 34.5,61C 35.3097,64.2025 36.3097,67.3692 37.5,70.5C 35.2653,75.4113 36.5987,78.7447 41.5,80.5C 41.8333,81.3333 42.1667,82.1667 42.5,83C 40.4932,88.4985 40.3265,93.9985 42,99.5C 44.8194,103.493 48.6527,105.16 53.5,104.5C 52.9011,107.168 51.2344,109.002 48.5,110C 47.1955,110.804 46.5288,111.971 46.5,113.5C 48.099,117.961 48.4323,122.461 47.5,127C 47.8618,128.434 48.5285,129.601 49.5,130.5C 46.349,131.65 43.0156,132.317 39.5,132.5C 36.6445,132.497 33.9779,132.164 31.5,131.5C 36.2137,131.827 40.8804,131.493 45.5,130.5C 46.0524,124.786 45.3857,119.12 43.5,113.5C 44.8333,111.5 46.1667,109.5 47.5,107.5C 45.1443,105.31 42.6443,103.31 40,101.5C 39.1816,98.8929 38.6816,96.2263 38.5,93.5C 39.4632,89.7951 39.4632,86.1284 38.5,82.5C 33.7984,79.688 32.4651,75.688 34.5,70.5C 28.8413,55.3806 33.8413,47.8806 49.5,48C 47.0225,44.238 45.5225,40.0713 45,35.5C 43.7293,22.6026 49.5626,15.6026 62.5,14.5C 68.0412,16.4281 73.7079,18.0947 79.5,19.5C 79.2479,22.2438 79.9145,24.7438 81.5,27C 79.953,28.3762 78.6197,29.8762 77.5,31.5 Z"/></g>
<g><path style="opacity:1" fill="#02030e" d="M 66.5,31.5 C 65.8333,31.5 65.1667,31.5 64.5,31.5C 61.8283,29.6086 60.8283,26.9419 61.5,23.5C 60.5,23.5 59.5,23.5 58.5,23.5C 57.7659,22.2921 57.4326,20.9587 57.5,19.5C 61.4383,19.6355 64.7717,21.1355 67.5,24C 65.2854,26.2415 64.9521,28.7415 66.5,31.5 Z"/></g>
<g><path style="opacity:1" fill="#010208" d="M 48.5,57.5 C 46.2181,56.6103 43.8848,56.4436 41.5,57C 40.1727,61.9006 41.1727,66.4006 44.5,70.5C 45.9703,67.2926 47.1369,63.9592 48,60.5C 49.8886,61.0974 51.7219,61.4307 53.5,61.5C 51.9856,69.5587 50.1523,77.5587 48,85.5C 47.2073,89.423 47.374,93.2564 48.5,97C 51.1396,97.839 53.4729,97.339 55.5,95.5C 59.846,88.1644 63.0127,80.4978 65,72.5C 61.9814,68.8444 60.4814,64.8444 60.5,60.5C 64.5569,62.2023 68.2235,61.7023 71.5,59C 79.8694,54.3595 84.036,56.8595 84,66.5C 87.5016,71.6858 91.0016,76.8525 94.5,82C 95.448,82.4828 96.448,82.6495 97.5,82.5C 97.0371,85.4824 96.7038,88.4824 96.5,91.5C 93.4578,90.4589 90.4578,90.4589 87.5,91.5C 87.6633,89.1432 87.4966,86.8098 87,84.5C 84.5,81.6667 82,78.8333 79.5,76C 76.3578,76.0878 73.8578,77.5878 72,80.5C 70,83.8333 68,87.1667 66,90.5C 64.9277,95.8114 63.9277,101.145 63,106.5C 60.153,110.011 57.3196,113.511 54.5,117C 55.2335,118.766 55.5668,120.599 55.5,122.5C 60.2886,123.38 60.622,125.214 56.5,128C 57.056,128.383 57.3893,128.883 57.5,129.5C 56.0048,129.989 54.6715,130.655 53.5,131.5C 52.2921,130.766 50.9587,130.433 49.5,130.5C 48.5285,129.601 47.8618,128.434 47.5,127C 48.4323,122.461 48.099,117.961 46.5,113.5C 46.5288,111.971 47.1955,110.804 48.5,110C 51.2344,109.002 52.9011,107.168 53.5,104.5C 48.6527,105.16 44.8194,103.493 42,99.5C 40.3265,93.9985 40.4932,88.4985 42.5,83C 42.1667,82.1667 41.8333,81.3333 41.5,80.5C 36.5987,78.7447 35.2653,75.4113 37.5,70.5C 36.3097,67.3692 35.3097,64.2025 34.5,61C 34.2285,55.2751 36.8952,51.9417 42.5,51C 49.2002,49.5174 51.2002,51.684 48.5,57.5 Z"/></g>
<g><path style="opacity:1" fill="#353471" d="M 107.5,18.5 C 109.995,20.7143 112.995,21.8809 116.5,22C 121.833,22.6667 127.167,22.6667 132.5,22C 138.369,20.4006 144.035,18.2339 149.5,15.5C 155.172,18.0028 160.838,20.5028 166.5,23C 173.654,23.9113 180.654,23.2446 187.5,21C 191.444,18.8585 195.444,17.0252 199.5,15.5C 199.334,19.5138 199.501,23.5138 200,27.5C 201.085,26.7069 202.252,26.0402 203.5,25.5C 205.882,27.0707 208.549,27.904 211.5,28C 212.75,32.5824 214.417,37.0824 216.5,41.5C 218.556,38.4427 221.222,36.1093 224.5,34.5C 224.137,33.8165 223.804,33.1499 223.5,32.5C 226.573,32.6759 229.906,32.3426 233.5,31.5C 235.167,31.5 236.833,31.5 238.5,31.5C 238.336,34.1873 238.503,36.854 239,39.5C 240.243,36.6806 241.743,34.0139 243.5,31.5C 242.5,30.1667 241.5,28.8333 240.5,27.5C 239.749,28.376 239.249,29.376 239,30.5C 238.178,27.8832 237.678,25.2165 237.5,22.5C 238.833,22.5 240.167,22.5 241.5,22.5C 241.5,21.5 241.5,20.5 241.5,19.5C 240.167,19.5 238.833,19.5 237.5,19.5C 236.957,19.44 236.624,19.1067 236.5,18.5C 241.132,16.2887 243.465,17.622 243.5,22.5C 242.571,23.3149 241.571,24.1482 240.5,25C 242.53,26.8962 244.197,29.0629 245.5,31.5C 244.23,36.754 241.23,40.4206 236.5,42.5C 235.841,39.5448 235.508,36.5448 235.5,33.5C 228.996,34.1642 223.496,36.8309 219,41.5C 220.114,43.6691 219.614,45.5024 217.5,47C 219.5,47.3333 221.5,47.6667 223.5,48C 221.602,48.8996 219.936,50.0663 218.5,51.5C 223.114,57.1713 227.114,56.838 230.5,50.5C 230.833,51 231.167,51.5 231.5,52C 230.209,54.0503 229.709,56.217 230,58.5C 231.011,59.3366 232.178,59.67 233.5,59.5C 233.183,56.4281 233.516,53.4281 234.5,50.5C 234.524,53.3094 234.857,56.1427 235.5,59C 235.833,59.1667 236.167,59.3333 236.5,59.5C 237.281,58.2713 237.781,56.938 238,55.5C 238.583,57.0016 239.416,58.3349 240.5,59.5C 241.197,57.6155 242.197,57.2822 243.5,58.5C 243.534,55.557 243.867,52.557 244.5,49.5C 245.228,52.2125 246.061,54.8791 247,57.5C 247.965,59.2603 249.132,59.5937 250.5,58.5C 247.043,54.274 246.376,49.774 248.5,45C 246.74,38.4938 247.407,37.6605 250.5,42.5C 251.666,40.6351 251.333,38.9684 249.5,37.5C 251.737,35.6378 252.403,33.4711 251.5,31C 252.646,30.3551 253.646,29.5217 254.5,28.5C 256.179,35.9489 254.513,42.4489 249.5,48C 258.975,46.2965 264.975,50.1298 267.5,59.5C 266.008,65.3933 265.175,71.3933 265,77.5C 264.428,80.707 262.595,82.3737 259.5,82.5C 264.275,93.325 261.609,101.658 251.5,107.5C 252.48,108.981 253.647,110.315 255,111.5C 255.641,115.155 255.141,118.655 253.5,122C 253.741,123.984 254.408,125.817 255.5,127.5C 254.352,129.149 253.019,130.649 251.5,132C 258.184,132.546 264.851,132.38 271.5,131.5C 264.553,133.059 257.386,134.059 250,134.5C 248.437,133.898 248.604,133.065 250.5,132C 249.552,131.517 248.552,131.351 247.5,131.5C 247.817,135.172 246.151,136.838 242.5,136.5C 242.906,138.109 242.906,139.443 242.5,140.5C 240.47,138.249 238.136,137.916 235.5,139.5C 238.737,137.539 242.071,135.539 245.5,133.5C 246.386,132.675 246.719,131.675 246.5,130.5C 252.292,130.413 253.625,128.079 250.5,123.5C 251.793,120.584 252.793,117.584 253.5,114.5C 251.127,111.138 248.794,107.805 246.5,104.5C 254.601,104.898 258.601,101.065 258.5,93C 257.708,88.8433 257.542,84.6766 258,80.5C 263.373,79.0775 264.873,75.7442 262.5,70.5C 263.858,65.5587 264.358,60.5587 264,55.5C 260.774,51.4243 256.607,49.9243 251.5,51C 248.741,53.5738 249.074,55.7405 252.5,57.5C 256.139,55.5597 258.139,56.5597 258.5,60.5C 256.153,72.6298 254.153,72.9632 252.5,61.5C 250.738,61.6427 249.071,61.3094 247.5,60.5C 247.167,61.6667 246.833,62.8333 246.5,64C 248.398,73.1927 250.398,82.3593 252.5,91.5C 252.662,96.5044 250.329,98.3377 245.5,97C 244.213,95.5905 243.046,94.0905 242,92.5C 239.304,86.2736 236.47,80.1069 233.5,74C 236.729,70.0432 238.729,65.5432 239.5,60.5C 232.447,61.2805 225.947,59.9471 220,56.5C 219.228,56.6448 218.561,56.9781 218,57.5C 215.487,65.699 211.82,73.3657 207,80.5C 205.054,81.747 203.22,83.0803 201.5,84.5C 202.106,86.7094 202.773,88.876 203.5,91C 206.447,90.8481 209.447,90.6815 212.5,90.5C 212.185,88.7741 212.019,87.1075 212,85.5C 214.463,82.0354 217.296,78.8688 220.5,76C 221.5,75.3333 222.5,75.3333 223.5,76C 231.217,83.1504 235.05,91.9837 235,102.5C 237.22,107.384 240.22,111.718 244,115.5C 244.667,117.5 244.667,119.5 244,121.5C 241.877,121.966 240.377,123.133 239.5,125C 241.1,126.123 242.1,127.623 242.5,129.5C 240.585,129.784 238.919,129.451 237.5,128.5C 238.239,128.631 238.906,128.464 239.5,128C 238.196,127.196 237.529,126.029 237.5,124.5C 239.167,122.167 240.833,119.833 242.5,117.5C 240.517,115.016 238.35,112.683 236,110.5C 234.882,108.235 234.049,105.901 233.5,103.5C 231.61,103.297 230.11,103.963 229,105.5C 229.181,109.547 229.015,113.547 228.5,117.5C 226.199,118.325 223.865,118.992 221.5,119.5C 218.833,120.167 216.167,120.833 213.5,121.5C 217.145,118.378 221.478,116.378 226.5,115.5C 226.335,111.818 226.501,108.152 227,104.5C 229.321,102.457 231.155,100.124 232.5,97.5C 231.336,94.9328 230.67,92.2662 230.5,89.5C 229.5,89.5 228.5,89.5 227.5,89.5C 227.657,90.8734 227.49,92.2068 227,93.5C 223.728,94.2508 221.061,95.9175 219,98.5C 218.501,102.821 218.334,107.154 218.5,111.5C 217.167,111.5 215.833,111.5 214.5,111.5C 214.957,106.547 215.957,101.714 217.5,97C 219.096,94.2382 221.429,92.4048 224.5,91.5C 225.37,89.5934 226.37,87.7601 227.5,86C 226.454,82.9495 224.621,80.4495 222,78.5C 219.694,80.8063 217.36,83.1396 215,85.5C 214.79,88.2342 213.956,90.7342 212.5,93C 208.833,93.6667 205.167,93.6667 201.5,93C 200.914,90.7202 200.08,88.5535 199,86.5C 190.809,110.522 174.976,127.189 151.5,136.5C 150.167,136.5 148.833,136.5 147.5,136.5C 129.951,128.805 116.118,116.805 106,100.5C 103.681,95.714 101.848,90.714 100.5,85.5C 99.0682,87.8162 98.0682,90.3162 97.5,93C 93.8333,93.6667 90.1667,93.6667 86.5,93C 85.356,87.1864 82.5227,82.3531 78,78.5C 75.5183,80.6539 73.3516,83.1539 71.5,86C 73.6721,90.8388 77.1721,94.3388 82,96.5C 83.1016,101.105 83.935,105.771 84.5,110.5C 87.422,110.899 90.422,111.066 93.5,111C 95.0264,112.589 96.1931,114.423 97,116.5C 97.6667,118.167 97.6667,119.833 97,121.5C 94.5619,122.568 92.3952,123.902 90.5,125.5C 86.1402,123.452 81.8069,121.452 77.5,119.5C 75.0634,118.783 72.7301,117.783 70.5,116.5C 70.2596,112.914 70.0929,109.248 70,105.5C 69.1627,103.993 67.9961,103.493 66.5,104C 64.26,109.192 61.26,113.859 57.5,118C 59.0526,120.048 60.3859,122.215 61.5,124.5C 61.0976,126.3 60.4309,127.967 59.5,129.5C 58.8333,129.5 58.1667,129.5 57.5,129.5C 57.3893,128.883 57.056,128.383 56.5,128C 60.622,125.214 60.2886,123.38 55.5,122.5C 55.5668,120.599 55.2335,118.766 54.5,117C 57.3196,113.511 60.153,110.011 63,106.5C 63.9277,101.145 64.9277,95.8114 66,90.5C 68,87.1667 70,83.8333 72,80.5C 73.8578,77.5878 76.3578,76.0878 79.5,76C 82,78.8333 84.5,81.6667 87,84.5C 87.4966,86.8098 87.6633,89.1432 87.5,91.5C 90.4578,90.4589 93.4578,90.4589 96.5,91.5C 96.7038,88.4824 97.0371,85.4824 97.5,82.5C 96.448,82.6495 95.448,82.4828 94.5,82C 91.0016,76.8525 87.5016,71.6858 84,66.5C 84.036,56.8595 79.8694,54.3595 71.5,59C 68.2235,61.7023 64.5569,62.2023 60.5,60.5C 60.4814,64.8444 61.9814,68.8444 65,72.5C 63.0127,80.4978 59.846,88.1644 55.5,95.5C 53.4729,97.339 51.1396,97.839 48.5,97C 47.374,93.2564 47.2073,89.423 48,85.5C 50.1523,77.5587 51.9856,69.5587 53.5,61.5C 51.7219,61.4307 49.8886,61.0974 48,60.5C 47.1369,63.9592 45.9703,67.2926 44.5,70.5C 41.1727,66.4006 40.1727,61.9006 41.5,57C 43.8848,56.4436 46.2181,56.6103 48.5,57.5C 48.4701,58.4972 48.9701,59.1639 50,59.5C 51.6057,57.016 53.1057,57.016 54.5,59.5C 55.1067,59.3764 55.44,59.0431 55.5,58.5C 58.143,58.8579 60.8096,59.1912 63.5,59.5C 64.2625,47.6632 65.5958,47.6632 67.5,59.5C 68.8805,59.0004 69.5472,58.0004 69.5,56.5C 69.1252,54.5406 68.4585,52.7073 67.5,51C 67.8333,50.8333 68.1667,50.6667 68.5,50.5C 69.8955,52.7327 71.7289,54.3993 74,55.5C 76.149,54.7008 78.3157,53.8675 80.5,53C 81.8333,52 81.8333,51 80.5,50C 77.9109,48.8035 75.2442,47.8035 72.5,47C 75.4856,47.1276 78.4856,47.1276 81.5,47C 78.8333,45.6667 78.8333,44.3333 81.5,43C 80.3474,41.117 78.6807,40.2837 76.5,40.5C 76.4386,38.4078 75.4386,36.9078 73.5,36C 71.2922,35.8091 69.2922,35.3091 67.5,34.5C 68.7383,34.19 68.7383,33.69 67.5,33C 66.2625,32.7679 65.2625,32.2679 64.5,31.5C 65.1667,31.5 65.8333,31.5 66.5,31.5C 68.7819,32.3897 71.1152,32.5564 73.5,32C 70.9244,30.6166 71.2577,29.7833 74.5,29.5C 76.0296,29.6399 77.0296,30.3065 77.5,31.5C 76.7701,32.7124 75.7701,33.7124 74.5,34.5C 78.0329,35.9676 80.8662,38.3009 83,41.5C 85.791,38.5852 86.6244,35.2519 85.5,31.5C 85.5288,29.9707 86.1955,28.804 87.5,28C 90.4512,27.904 93.1178,27.0707 95.5,25.5C 96.7362,26.2458 98.0695,26.5792 99.5,26.5C 99.5,22.8333 99.5,19.1667 99.5,15.5C 102.143,16.454 104.81,17.454 107.5,18.5 Z"/></g>
<g><path style="opacity:1" fill="#020209" d="M 246.5,130.5 C 245.041,130.567 243.708,130.234 242.5,129.5C 242.1,127.623 241.1,126.123 239.5,125C 240.377,123.133 241.877,121.966 244,121.5C 244.667,119.5 244.667,117.5 244,115.5C 240.22,111.718 237.22,107.384 235,102.5C 235.05,91.9837 231.217,83.1504 223.5,76C 222.5,75.3333 221.5,75.3333 220.5,76C 217.296,78.8688 214.463,82.0354 212,85.5C 212.019,87.1075 212.185,88.7741 212.5,90.5C 209.447,90.6815 206.447,90.8481 203.5,91C 202.773,88.876 202.106,86.7094 201.5,84.5C 203.22,83.0803 205.054,81.747 207,80.5C 211.82,73.3657 215.487,65.699 218,57.5C 218.561,56.9781 219.228,56.6448 220,56.5C 225.947,59.9471 232.447,61.2805 239.5,60.5C 238.729,65.5432 236.729,70.0432 233.5,74C 236.47,80.1069 239.304,86.2736 242,92.5C 243.046,94.0905 244.213,95.5905 245.5,97C 250.329,98.3377 252.662,96.5044 252.5,91.5C 250.398,82.3593 248.398,73.1927 246.5,64C 246.833,62.8333 247.167,61.6667 247.5,60.5C 249.071,61.3094 250.738,61.6427 252.5,61.5C 254.153,72.9632 256.153,72.6298 258.5,60.5C 258.139,56.5597 256.139,55.5597 252.5,57.5C 249.074,55.7405 248.741,53.5738 251.5,51C 256.607,49.9243 260.774,51.4243 264,55.5C 264.358,60.5587 263.858,65.5587 262.5,70.5C 264.873,75.7442 263.373,79.0775 258,80.5C 257.542,84.6766 257.708,88.8433 258.5,93C 258.601,101.065 254.601,104.898 246.5,104.5C 248.794,107.805 251.127,111.138 253.5,114.5C 252.793,117.584 251.793,120.584 250.5,123.5C 253.625,128.079 252.292,130.413 246.5,130.5 Z"/></g>
<g><path style="opacity:1" fill="#020109" d="M 96.5,40.5 C 97.5,40.5 98.5,40.5 99.5,40.5C 99.6666,54.1707 99.4999,67.8374 99,81.5C 97.4157,80.1387 95.5824,79.472 93.5,79.5C 91.6485,74.9611 89.6485,70.4611 87.5,66C 90.736,57.5922 93.736,49.0922 96.5,40.5 Z"/></g>
<g><path style="opacity:1" fill="#131133" d="M 103.5,19.5 C 102.503,40.6601 102.169,61.9935 102.5,83.5C 101.172,61.9963 101.172,40.3296 102.5,18.5C 103.107,18.6236 103.44,18.9569 103.5,19.5 Z"/></g>
<g><path style="opacity:1" fill="#010108" d="M 199.5,40.5 C 202.091,41.2543 203.924,42.921 205,45.5C 206.559,52.4159 208.725,59.0826 211.5,65.5C 209.784,72.2946 206.117,77.628 200.5,81.5C 199.501,67.8496 199.167,54.1829 199.5,40.5 Z"/></g>
<g><path style="opacity:1" fill="#04030e" d="M 95.5,28.5 C 96.4959,28.4142 97.3292,28.7476 98,29.5C 98.3729,31.6982 98.8729,33.8649 99.5,36C 97.6827,37.7312 95.8493,39.5646 94,41.5C 91.5778,48.2755 89.0778,54.9421 86.5,61.5C 85.3582,59.1967 84.0248,57.0301 82.5,55C 84.7743,51.8689 85.1076,48.5355 83.5,45C 84.9534,41.9279 86.7868,39.0946 89,36.5C 89.1953,34.7928 89.1953,33.1261 89,31.5C 91.4152,30.8681 93.5819,29.8681 95.5,28.5 Z"/></g>
<g><path style="opacity:1" fill="#131526" d="M 237.5,19.5 C 238.833,19.5 240.167,19.5 241.5,19.5C 241.5,20.5 241.5,21.5 241.5,22.5C 240.167,22.5 238.833,22.5 237.5,22.5C 237.678,25.2165 238.178,27.8832 239,30.5C 239.249,29.376 239.749,28.376 240.5,27.5C 241.5,28.8333 242.5,30.1667 243.5,31.5C 241.743,34.0139 240.243,36.6806 239,39.5C 238.503,36.854 238.336,34.1873 238.5,31.5C 236.833,31.5 235.167,31.5 233.5,31.5C 233.708,29.0799 233.374,26.7466 232.5,24.5C 233.245,21.7543 234.912,20.0876 237.5,19.5 Z"/></g>
<g><path style="opacity:1" fill="#07040f" d="M 102.5,83.5 C 102.169,61.9935 102.503,40.6601 103.5,19.5C 119.188,27.9163 134.521,27.2496 149.5,17.5C 165.025,27.7376 180.691,28.0709 196.5,18.5C 197.666,39.1586 197.833,59.8253 197,80.5C 192.541,103.528 179.708,120.362 158.5,131C 154.682,132.944 150.682,133.611 146.5,133C 130.258,125.758 117.424,114.591 108,99.5C 105.244,94.475 103.411,89.1416 102.5,83.5 Z"/></g>
<g><path style="opacity:1" fill="#f2a3a8" d="M 164.5,45.5 C 165.189,46.7736 166.023,46.7736 167,45.5C 167.498,48.8168 167.665,52.1501 167.5,55.5C 174.569,56.8785 174.902,58.2118 168.5,59.5C 167.299,55.6014 166.299,51.6014 165.5,47.5C 164.824,48.6016 164.158,49.6016 163.5,50.5C 163.5,50.1667 163.5,49.8333 163.5,49.5C 163.232,47.901 163.566,46.5676 164.5,45.5 Z"/></g>
<g><path style="opacity:1" fill="#6c5a31" d="M 108.5,26.5 C 106.518,39.7924 105.851,53.4591 106.5,67.5C 105.504,53.6766 105.171,39.6766 105.5,25.5C 106.791,25.2627 107.791,25.596 108.5,26.5 Z"/></g>
<g><path style="opacity:1" fill="#fbcb34" d="M 148.5,23.5 C 148.833,23.5 149.167,23.5 149.5,23.5C 149.5,37.5 149.5,51.5 149.5,65.5C 149.5,66.1667 149.5,66.8333 149.5,67.5C 135.5,67.5 121.5,67.5 107.5,67.5C 107.167,67.5 106.833,67.5 106.5,67.5C 105.851,53.4591 106.518,39.7924 108.5,26.5C 109.391,27.1098 110.391,27.4431 111.5,27.5C 112.263,28.2679 113.263,28.7679 114.5,29C 121.833,29.6667 129.167,29.6667 136.5,29C 137.737,28.7679 138.737,28.2679 139.5,27.5C 142.57,26.4682 145.57,25.1348 148.5,23.5 Z"/></g>
<g><path style="opacity:1" fill="#fdf9e4" d="M 138.5,61.5 C 129.334,67.5968 121.001,66.5968 113.5,58.5C 117.94,59.6749 122.606,59.6749 127.5,58.5C 127.737,57.209 127.404,56.209 126.5,55.5C 126.511,53.4534 126.844,51.4534 127.5,49.5C 125.931,47.3476 125.431,45.0143 126,42.5C 127.938,41.1398 129.604,41.4732 131,43.5C 129.818,48.6676 129.318,54.0009 129.5,59.5C 133.012,58.9455 136.012,59.6122 138.5,61.5 Z"/></g>
<g><path style="opacity:1" fill="#f8d862" d="M 138.5,61.5 C 136.012,59.6122 133.012,58.9455 129.5,59.5C 129.318,54.0009 129.818,48.6676 131,43.5C 129.604,41.4732 127.938,41.1398 126,42.5C 125.431,45.0143 125.931,47.3476 127.5,49.5C 126.844,51.4534 126.511,53.4534 126.5,55.5C 125.698,54.0484 125.198,52.3817 125,50.5C 121.492,54.6112 120.992,54.4445 123.5,50C 118.342,49.3171 118.342,48.4837 123.5,47.5C 123.439,45.4078 122.439,43.9078 120.5,43C 121.652,40.8513 123.152,39.018 125,37.5C 126.716,38.5523 127.716,37.8856 128,35.5C 129.706,36.3079 130.539,37.6412 130.5,39.5C 131.5,39.5 132.5,39.5 133.5,39.5C 134.353,41.5971 134.353,43.5971 133.5,45.5C 134.93,47.386 136.597,49.0527 138.5,50.5C 138.167,50.8333 137.833,51.1667 137.5,51.5C 136.833,50.8333 136.167,50.1667 135.5,49.5C 134.355,50.7757 134.355,52.109 135.5,53.5C 135.167,53.8333 134.833,54.1667 134.5,54.5C 133.833,53.8333 133.167,53.1667 132.5,52.5C 131.682,54.1083 131.015,55.7749 130.5,57.5C 133.844,58.7571 137.177,58.7571 140.5,57.5C 141.395,59.3448 140.728,60.6782 138.5,61.5 Z"/></g>
<g><path style="opacity:1" fill="#e12527" d="M 149.5,23.5 C 150.968,24.8691 152.635,26.0357 154.5,27C 158.825,28.8293 163.158,30.3293 167.5,31.5C 167.444,36.3895 166.444,41.0561 164.5,45.5C 163.566,46.5676 163.232,47.901 163.5,49.5C 162.5,49.5 161.5,49.5 160.5,49.5C 160.5,48.5 160.5,47.5 160.5,46.5C 157.625,47.6229 154.625,48.4562 151.5,49C 153.218,49.346 154.885,49.846 156.5,50.5C 157.492,54.7828 157.826,59.1161 157.5,63.5C 154.892,63.4003 152.558,64.0669 150.5,65.5C 150.167,65.5 149.833,65.5 149.5,65.5C 149.5,51.5 149.5,37.5 149.5,23.5 Z"/></g>
<g><path style="opacity:1" fill="#e12026" d="M 191.5,60.5 C 190.21,59.9423 189.377,58.9423 189,57.5C 188.697,53.106 188.03,48.7727 187,44.5C 186.311,43.6433 185.478,42.9767 184.5,42.5C 183.311,44.3634 181.978,46.0301 180.5,47.5C 177.871,43.5373 174.871,39.8706 171.5,36.5C 170.548,34.9547 170.215,33.288 170.5,31.5C 177.592,31.9338 184.259,30.6005 190.5,27.5C 191.499,38.4798 191.832,49.4798 191.5,60.5 Z"/></g>
<g><path style="opacity:1" fill="#533a79" d="M 148.5,23.5 C 148.735,22.9033 149.235,22.5699 150,22.5C 163.851,29.599 178.018,30.2656 192.5,24.5C 193.666,45.1586 193.833,65.8253 193,86.5C 191.859,89.0618 191.026,91.7284 190.5,94.5C 190.253,95.7133 189.586,96.38 188.5,96.5C 188.5,95.1667 188.5,93.8333 188.5,92.5C 191.28,84.5256 192.28,76.1922 191.5,67.5C 191.5,67.1667 191.5,66.8333 191.5,66.5C 191.5,64.5 191.5,62.5 191.5,60.5C 191.832,49.4798 191.499,38.4798 190.5,27.5C 184.259,30.6005 177.592,31.9338 170.5,31.5C 169.5,31.5 168.5,31.5 167.5,31.5C 163.158,30.3293 158.825,28.8293 154.5,27C 152.635,26.0357 150.968,24.8691 149.5,23.5C 149.167,23.5 148.833,23.5 148.5,23.5 Z"/></g>
<g><path style="opacity:1" fill="#02020a" d="M 201.5,28.5 C 204.455,29.1587 207.455,29.4921 210.5,29.5C 210.213,35.2361 211.88,40.2361 215.5,44.5C 213.892,48.3205 214.225,51.8205 216.5,55C 215.406,56.7803 214.406,58.6136 213.5,60.5C 212.201,59.91 211.368,58.91 211,57.5C 209.577,49.0512 206.077,41.7178 200.5,35.5C 201.223,33.2178 201.557,30.8845 201.5,28.5 Z"/></g>
<g><path style="opacity:1" fill="#5b4f4e" d="M 111.5,27.5 C 120.833,28.8333 130.167,28.8333 139.5,27.5C 138.737,28.2679 137.737,28.7679 136.5,29C 129.167,29.6667 121.833,29.6667 114.5,29C 113.263,28.7679 112.263,28.2679 111.5,27.5 Z"/></g>
<g><path style="opacity:1" fill="#fbeeec" d="M 167.5,31.5 C 168.5,31.5 169.5,31.5 170.5,31.5C 170.215,33.288 170.548,34.9547 171.5,36.5C 174.871,39.8706 177.871,43.5373 180.5,47.5C 181.978,46.0301 183.311,44.3634 184.5,42.5C 185.478,42.9767 186.311,43.6433 187,44.5C 188.03,48.7727 188.697,53.106 189,57.5C 189.377,58.9423 190.21,59.9423 191.5,60.5C 191.5,62.5 191.5,64.5 191.5,66.5C 177.656,66.829 163.99,66.4957 150.5,65.5C 152.558,64.0669 154.892,63.4003 157.5,63.5C 157.826,59.1161 157.492,54.7828 156.5,50.5C 154.885,49.846 153.218,49.346 151.5,49C 154.625,48.4562 157.625,47.6229 160.5,46.5C 160.5,47.5 160.5,48.5 160.5,49.5C 161.5,49.5 162.5,49.5 163.5,49.5C 163.5,49.8333 163.5,50.1667 163.5,50.5C 162.47,51.5523 161.803,52.8857 161.5,54.5C 162.182,56.8409 162.849,59.1743 163.5,61.5C 165.698,61.8799 167.365,61.2132 168.5,59.5C 174.902,58.2118 174.569,56.8785 167.5,55.5C 167.665,52.1501 167.498,48.8168 167,45.5C 166.023,46.7736 165.189,46.7736 164.5,45.5C 166.444,41.0561 167.444,36.3895 167.5,31.5 Z"/></g>
<g><path style="opacity:1" fill="#da413f" d="M 185.5,57.5 C 187.121,57.7869 188.121,58.7869 188.5,60.5C 187.675,61.3857 186.675,61.719 185.5,61.5C 185.5,60.1667 185.5,58.8333 185.5,57.5 Z"/></g>
<g><path style="opacity:1" fill="#cd2e2b" d="M 159.5,58.5 C 161.476,59.4271 161.809,60.7605 160.5,62.5C 159.571,61.3112 159.238,59.9778 159.5,58.5 Z"/></g>
<g><path style="opacity:1" fill="#da2728" d="M 168.5,59.5 C 167.365,61.2132 165.698,61.8799 163.5,61.5C 162.849,59.1743 162.182,56.8409 161.5,54.5C 161.803,52.8857 162.47,51.5523 163.5,50.5C 164.158,49.6016 164.824,48.6016 165.5,47.5C 166.299,51.6014 167.299,55.6014 168.5,59.5 Z"/></g>
<g><path style="opacity:1" fill="#dc282a" d="M 180.5,47.5 C 181.568,48.4345 182.901,48.7678 184.5,48.5C 184.495,52.5341 184.162,56.5341 183.5,60.5C 180.833,60.5 178.167,60.5 175.5,60.5C 174.147,57.9065 173.481,55.0732 173.5,52C 173.565,46.9674 175.899,45.4674 180.5,47.5 Z"/></g>
<g><path style="opacity:1" fill="#02030c" d="M 55.5,61.5 C 58.0666,65.6415 60.7332,69.8082 63.5,74C 59.7834,80.6008 56.4501,87.4341 53.5,94.5C 52.3112,95.4287 50.9778,95.762 49.5,95.5C 49.3354,92.4816 49.502,89.4816 50,86.5C 52.7896,78.3861 54.6229,70.0528 55.5,61.5 Z"/></g>
<g><path style="opacity:1" fill="#fbe295" d="M 149.5,65.5 C 149.833,65.5 150.167,65.5 150.5,65.5C 163.99,66.4957 177.656,66.829 191.5,66.5C 191.5,66.8333 191.5,67.1667 191.5,67.5C 177.5,67.5 163.5,67.5 149.5,67.5C 149.5,66.8333 149.5,66.1667 149.5,65.5 Z"/></g>
<g><path style="opacity:1" fill="#020209" d="M 241.5,63.5 C 243.093,64.3479 244.26,65.6813 245,67.5C 245.386,73.71 246.719,79.71 249,85.5C 249.498,88.8168 249.665,92.1501 249.5,95.5C 248.178,95.67 247.011,95.3366 246,94.5C 243.179,88.342 240.179,82.342 237,76.5C 236.333,75.1667 236.333,73.8333 237,72.5C 239.163,69.8522 240.663,66.8522 241.5,63.5 Z"/></g>
<g><path style="opacity:1" fill="#e12126" d="M 107.5,67.5 C 121.5,67.5 135.5,67.5 149.5,67.5C 149.5,87.5 149.5,107.5 149.5,127.5C 148.652,128.625 147.652,128.625 146.5,127.5C 140.323,125.745 134.656,122.911 129.5,119C 126.333,114.5 122.5,110.667 118,107.5C 116.579,104.991 114.912,102.657 113,100.5C 111.991,98.9751 111.491,97.3084 111.5,95.5C 110.677,93.5454 110.51,91.5454 111,89.5C 111.333,90.5 111.667,91.5 112,92.5C 112.696,88.0946 112.363,83.7612 111,79.5C 110.818,82.2263 110.318,84.8929 109.5,87.5C 108.798,80.7794 108.131,74.1128 107.5,67.5 Z"/></g>
<g><path style="opacity:1" fill="#040207" d="M 147.5,136.5 C 139.512,135.723 131.512,135.057 123.5,134.5C 112.076,132.885 101.076,129.885 90.5,125.5C 92.3952,123.902 94.5619,122.568 97,121.5C 97.6667,119.833 97.6667,118.167 97,116.5C 96.1931,114.423 95.0264,112.589 93.5,111C 90.422,111.066 87.422,110.899 84.5,110.5C 83.935,105.771 83.1016,101.105 82,96.5C 77.1721,94.3388 73.6721,90.8388 71.5,86C 73.3516,83.1539 75.5183,80.6539 78,78.5C 82.5227,82.3531 85.356,87.1864 86.5,93C 90.1667,93.6667 93.8333,93.6667 97.5,93C 98.0682,90.3162 99.0682,87.8162 100.5,85.5C 101.848,90.714 103.681,95.714 106,100.5C 116.118,116.805 129.951,128.805 147.5,136.5 Z"/></g>
<g><path style="opacity:1" fill="#040206" d="M 214.5,111.5 C 212.325,111.318 210.325,110.651 208.5,109.5C 204.381,112.433 202.548,116.433 203,121.5C 204.583,122.971 206.417,123.971 208.5,124.5C 193.845,131.163 178.511,135.163 162.5,136.5C 158.833,136.5 155.167,136.5 151.5,136.5C 174.976,127.189 190.809,110.522 199,86.5C 200.08,88.5535 200.914,90.7202 201.5,93C 205.167,93.6667 208.833,93.6667 212.5,93C 213.956,90.7342 214.79,88.2342 215,85.5C 217.36,83.1396 219.694,80.8063 222,78.5C 224.621,80.4495 226.454,82.9495 227.5,86C 226.37,87.7601 225.37,89.5934 224.5,91.5C 221.429,92.4048 219.096,94.2382 217.5,97C 215.957,101.714 214.957,106.547 214.5,111.5 Z"/></g>
<g><path style="opacity:1" fill="#fbf7f6" d="M 140.5,84.5 C 140.665,88.1817 140.499,91.8484 140,95.5C 139.586,95.9574 139.086,96.2907 138.5,96.5C 137.679,91.1922 135.512,86.5255 132,82.5C 133.511,85.7337 134.678,89.2337 135.5,93C 135.333,94.1667 135.167,95.3333 135,96.5C 133.624,97.7051 132.458,99.0384 131.5,100.5C 127.406,101.295 124.239,99.962 122,96.5C 120.621,91.964 120.121,87.2973 120.5,82.5C 120.421,77.1896 122.421,75.8562 126.5,78.5C 129.279,71.0916 132.612,70.7582 136.5,77.5C 137.167,77.1667 137.833,76.8333 138.5,76.5C 140.054,78.9329 140.72,81.5995 140.5,84.5 Z"/></g>
<g><path style="opacity:1" fill="#cd2537" d="M 106.5,67.5 C 106.833,67.5 107.167,67.5 107.5,67.5C 108.131,74.1128 108.798,80.7794 109.5,87.5C 110.318,84.8929 110.818,82.2263 111,79.5C 112.363,83.7612 112.696,88.0946 112,92.5C 111.667,91.5 111.333,90.5 111,89.5C 110.51,91.5454 110.677,93.5454 111.5,95.5C 109.478,92.2232 107.978,88.5566 107,84.5C 106.501,78.8431 106.334,73.1764 106.5,67.5 Z"/></g>
<g><path style="opacity:1" fill="#fdf2f2" d="M 117.5,84.5 C 117.634,90.4032 119.634,95.5699 123.5,100C 122.906,100.464 122.239,100.631 121.5,100.5C 115.756,95.9891 114.423,90.6557 117.5,84.5 Z"/></g>
<g><path style="opacity:1" fill="#02020a" d="M 213.5,121.5 C 213.5,121.833 213.5,122.167 213.5,122.5C 210.436,122.072 207.436,121.406 204.5,120.5C 205.765,117.537 207.098,114.537 208.5,111.5C 210.765,114.067 212.765,114.067 214.5,111.5C 215.833,111.5 217.167,111.5 218.5,111.5C 218.334,107.154 218.501,102.821 219,98.5C 221.061,95.9175 223.728,94.2508 227,93.5C 227.49,92.2068 227.657,90.8734 227.5,89.5C 228.5,89.5 229.5,89.5 230.5,89.5C 230.67,92.2662 231.336,94.9328 232.5,97.5C 231.155,100.124 229.321,102.457 227,104.5C 226.501,108.152 226.335,111.818 226.5,115.5C 221.478,116.378 217.145,118.378 213.5,121.5 Z"/></g>
<g><path style="opacity:1" fill="#e69d9f" d="M 120.5,82.5 C 120.121,87.2973 120.621,91.964 122,96.5C 124.239,99.962 127.406,101.295 131.5,100.5C 133.042,101.301 134.708,101.634 136.5,101.5C 135.081,102.451 133.415,102.784 131.5,102.5C 130.833,107.833 130.167,107.833 129.5,102.5C 126.505,102.706 123.838,102.04 121.5,100.5C 122.239,100.631 122.906,100.464 123.5,100C 119.634,95.5699 117.634,90.4032 117.5,84.5C 118.778,84.2178 119.778,83.5511 120.5,82.5 Z"/></g>
<g><path style="opacity:1" fill="#fcf0b6" d="M 184.5,87.5 C 185.167,90.1667 185.833,92.8333 186.5,95.5C 186.34,97.153 185.674,98.4863 184.5,99.5C 174.219,97.5238 163.552,96.8572 152.5,97.5C 152.198,94.9407 152.532,92.6074 153.5,90.5C 153.5,91.8333 153.5,93.1667 153.5,94.5C 163.833,94.5 174.167,94.5 184.5,94.5C 184.5,92.1667 184.5,89.8333 184.5,87.5 Z"/></g>
<g><path style="opacity:1" fill="#fcca2e" d="M 149.5,67.5 C 163.5,67.5 177.5,67.5 191.5,67.5C 192.28,76.1922 191.28,84.5256 188.5,92.5C 187.833,93.5 187.167,94.5 186.5,95.5C 185.833,92.8333 185.167,90.1667 184.5,87.5C 183.833,84.5 183.167,81.5 182.5,78.5C 173.833,77.1667 165.167,77.1667 156.5,78.5C 154.96,80.8383 154.294,83.5049 154.5,86.5C 153.566,87.5676 153.232,88.901 153.5,90.5C 152.532,92.6074 152.198,94.9407 152.5,97.5C 163.552,96.8572 174.219,97.5238 184.5,99.5C 176.952,111.21 166.952,120.376 154.5,127C 152.866,127.494 151.199,127.66 149.5,127.5C 149.5,107.5 149.5,87.5 149.5,67.5 Z"/></g>
<g><path style="opacity:1" fill="#dedfe9" d="M 156.5,78.5 C 160.182,78.3347 163.848,78.5014 167.5,79C 155.554,79.5092 155.554,80.3425 167.5,81.5C 167.33,85.3184 167.33,89.3184 167.5,93.5C 163.167,93.5 158.833,93.5 154.5,93.5C 154.5,91.1667 154.5,88.8333 154.5,86.5C 154.294,83.5049 154.96,80.8383 156.5,78.5 Z"/></g>
<g><path style="opacity:1" fill="#f5f1e6" d="M 156.5,78.5 C 165.167,77.1667 173.833,77.1667 182.5,78.5C 183.167,81.5 183.833,84.5 184.5,87.5C 184.5,89.8333 184.5,92.1667 184.5,94.5C 174.167,94.5 163.833,94.5 153.5,94.5C 153.5,93.1667 153.5,91.8333 153.5,90.5C 153.232,88.901 153.566,87.5676 154.5,86.5C 154.5,88.8333 154.5,91.1667 154.5,93.5C 158.833,93.5 163.167,93.5 167.5,93.5C 167.33,89.3184 167.33,85.3184 167.5,81.5C 155.554,80.3425 155.554,79.5092 167.5,79C 163.848,78.5014 160.182,78.3347 156.5,78.5 Z"/></g>
<g><path style="opacity:1" fill="#d8d9e7" d="M 182.5,78.5 C 182.5,80.5 182.5,82.5 182.5,84.5C 178.5,84.8333 178.5,85.1667 182.5,85.5C 182.5,86.8333 182.5,88.1667 182.5,89.5C 178.563,89.2065 174.73,89.5399 171,90.5C 171.022,86.3556 170.855,82.3556 170.5,78.5C 174.5,78.5 178.5,78.5 182.5,78.5 Z"/></g>
<g><path style="opacity:1" fill="#f0cdcf" d="M 140.5,84.5 C 141.802,85.8069 143.135,85.8069 144.5,84.5C 146.907,92.6819 144.24,98.3486 136.5,101.5C 134.708,101.634 133.042,101.301 131.5,100.5C 132.458,99.0384 133.624,97.7051 135,96.5C 135.167,95.3333 135.333,94.1667 135.5,93C 134.678,89.2337 133.511,85.7337 132,82.5C 135.512,86.5255 137.679,91.1922 138.5,96.5C 139.086,96.2907 139.586,95.9574 140,95.5C 140.499,91.8484 140.665,88.1817 140.5,84.5 Z"/></g>
<g><path style="opacity:1" fill="#050208" d="M 77.5,119.5 C 72.294,124.136 66.294,127.469 59.5,129.5C 60.4309,127.967 61.0976,126.3 61.5,124.5C 60.3859,122.215 59.0526,120.048 57.5,118C 61.26,113.859 64.26,109.192 66.5,104C 67.9961,103.493 69.1627,103.993 70,105.5C 70.0929,109.248 70.2596,112.914 70.5,116.5C 72.7301,117.783 75.0634,118.783 77.5,119.5 Z"/></g>
<g><path style="opacity:1" fill="#080308" d="M 237.5,128.5 C 231.234,127.037 225.9,124.037 221.5,119.5C 223.865,118.992 226.199,118.325 228.5,117.5C 229.015,113.547 229.181,109.547 229,105.5C 230.11,103.963 231.61,103.297 233.5,103.5C 234.049,105.901 234.882,108.235 236,110.5C 238.35,112.683 240.517,115.016 242.5,117.5C 240.833,119.833 239.167,122.167 237.5,124.5C 237.529,126.029 238.196,127.196 239.5,128C 238.906,128.464 238.239,128.631 237.5,128.5 Z"/></g>
<g><path style="opacity:1" fill="#03030d" d="M 69.5,89.5 C 70.9432,90.3351 71.9432,91.6684 72.5,93.5C 76.2451,94.3384 79.0784,96.3384 81,99.5C 81.1735,103.541 81.6735,107.541 82.5,111.5C 83.6113,112.611 84.9446,113.278 86.5,113.5C 88.4534,112.844 90.4534,112.511 92.5,112.5C 92.6386,115.588 93.6386,118.255 95.5,120.5C 93.088,120.331 90.9214,120.997 89,122.5C 84.3052,118.83 78.9719,116.496 73,115.5C 73.4052,111.879 73.4052,108.213 73,104.5C 67.063,100.752 65.8963,95.7516 69.5,89.5 Z"/></g>
<g><path style="opacity:1" fill="#39356b" d="M 214.5,111.5 C 212.765,114.067 210.765,114.067 208.5,111.5C 207.098,114.537 205.765,117.537 204.5,120.5C 207.436,121.406 210.436,122.072 213.5,122.5C 212.07,123.537 210.403,124.204 208.5,124.5C 206.417,123.971 204.583,122.971 203,121.5C 202.548,116.433 204.381,112.433 208.5,109.5C 210.325,110.651 212.325,111.318 214.5,111.5 Z"/></g>
<g><path style="opacity:1" fill="#453b66" d="M 188.5,92.5 C 188.5,93.8333 188.5,95.1667 188.5,96.5C 180.816,112.679 168.482,123.846 151.5,130C 148.738,131.077 147.072,130.244 146.5,127.5C 147.652,128.625 148.652,128.625 149.5,127.5C 151.199,127.66 152.866,127.494 154.5,127C 166.952,120.376 176.952,111.21 184.5,99.5C 185.674,98.4863 186.34,97.153 186.5,95.5C 187.167,94.5 187.833,93.5 188.5,92.5 Z"/></g>
<g><path style="opacity:1" fill="#393082" d="M 31.5,131.5 C 33.9779,132.164 36.6445,132.497 39.5,132.5C 43.0156,132.317 46.349,131.65 49.5,130.5C 50.9587,130.433 52.2921,130.766 53.5,131.5C 54.9568,133.785 56.9568,135.618 59.5,137C 66.1108,140.474 72.7774,143.641 79.5,146.5C 62.5469,155.072 44.5469,157.906 25.5,155C 16.6679,153.722 8.33458,151.055 0.5,147C 7.09559,146.194 13.4289,144.528 19.5,142C 15.2348,137.959 11.5681,133.459 8.5,128.5C 9.66667,128.167 10.8333,127.833 12,127.5C 18.4362,129.235 24.9362,130.568 31.5,131.5 Z"/></g>
<g><path style="opacity:1" fill="#d83a37" d="M 158.5,142.5 C 158.5,143.167 158.167,143.5 157.5,143.5C 155.598,146.337 154.931,149.671 155.5,153.5C 154.833,152.5 154.167,151.5 153.5,150.5C 153.37,142.035 152.37,141.701 150.5,149.5C 149.418,146.417 147.418,144.417 144.5,143.5C 144.177,147.226 144.511,150.893 145.5,154.5C 146.308,152.577 146.808,150.577 147,148.5C 148.039,149.244 148.539,150.244 148.5,151.5C 147.876,151.917 147.543,152.584 147.5,153.5C 148.651,155.325 149.318,157.325 149.5,159.5C 148.5,159.5 147.5,159.5 146.5,159.5C 146.5,158.167 146.5,156.833 146.5,155.5C 145.5,155.5 144.5,155.5 143.5,155.5C 143.806,152.615 143.473,149.948 142.5,147.5C 142.843,145.517 142.176,144.183 140.5,143.5C 140.5,142.5 140.5,141.5 140.5,140.5C 146.108,140.696 151.608,140.696 157,140.5C 158.03,140.836 158.53,141.503 158.5,142.5 Z"/></g>
<g><path style="opacity:1" fill="#393084" d="M 287.5,151.5 C 279.428,152.123 271.428,153.29 263.5,155C 258.167,155.667 252.833,155.667 247.5,155C 241.522,153.333 235.522,151.666 229.5,150C 228.577,147.959 228.244,145.792 228.5,143.5C 230.566,141.801 232.9,140.468 235.5,139.5C 238.136,137.916 240.47,138.249 242.5,140.5C 242.906,139.443 242.906,138.109 242.5,136.5C 246.151,136.838 247.817,135.172 247.5,131.5C 248.552,131.351 249.552,131.517 250.5,132C 248.604,133.065 248.437,133.898 250,134.5C 257.386,134.059 264.553,133.059 271.5,131.5C 277.415,129.855 283.415,128.522 289.5,127.5C 288.799,129.908 287.799,132.242 286.5,134.5C 282.974,136.526 280.307,139.359 278.5,143C 284.441,144.879 290.441,146.546 296.5,148C 293.721,149.722 290.721,150.889 287.5,151.5 Z"/></g>
<g><path style="opacity:1" fill="#e71b1f" d="M 135.5,154.5 C 140.694,155.145 143.028,152.811 142.5,147.5C 143.473,149.948 143.806,152.615 143.5,155.5C 144.5,155.5 145.5,155.5 146.5,155.5C 146.5,156.833 146.5,158.167 146.5,159.5C 144.833,159.5 143.167,159.5 141.5,159.5C 140.666,158.252 139.333,157.585 137.5,157.5C 132.178,156.89 126.844,156.39 121.5,156C 119.355,155.257 119.189,154.424 121,153.5C 123.77,154.348 126.603,154.681 129.5,154.5C 129.715,152.821 129.048,151.821 127.5,151.5C 127.5,150.833 127.167,150.5 126.5,150.5C 126.838,148.146 127.338,145.813 128,143.5C 128.219,144.938 128.719,146.271 129.5,147.5C 131.252,144.167 130.252,142.501 126.5,142.5C 126.496,144.842 125.663,146.842 124,148.5C 123.398,145.338 123.898,142.338 125.5,139.5C 127.747,140.374 130.08,140.708 132.5,140.5C 132.334,144.846 132.501,149.179 133,153.5C 133.671,154.252 134.504,154.586 135.5,154.5 Z"/></g>
<g><path style="opacity:1" fill="#ffeae8" d="M 140.5,143.5 C 142.176,144.183 142.843,145.517 142.5,147.5C 143.028,152.811 140.694,155.145 135.5,154.5C 133.327,150.76 132.994,146.76 134.5,142.5C 135.321,145.447 135.821,148.447 136,151.5C 137.587,152.727 138.921,152.394 140,150.5C 140.497,148.19 140.663,145.857 140.5,143.5 Z"/></g>
<g><path style="opacity:1" fill="#f8ebeb" d="M 153.5,150.5 C 153.5,151.833 153.5,153.167 153.5,154.5C 151.336,154.279 149.67,153.279 148.5,151.5C 148.539,150.244 148.039,149.244 147,148.5C 146.808,150.577 146.308,152.577 145.5,154.5C 144.511,150.893 144.177,147.226 144.5,143.5C 147.418,144.417 149.418,146.417 150.5,149.5C 152.37,141.701 153.37,142.035 153.5,150.5 Z"/></g>
<g><path style="opacity:1" fill="#da272a" d="M 77.5,119.5 C 81.8069,121.452 86.1402,123.452 90.5,125.5C 101.076,129.885 112.076,132.885 123.5,134.5C 129.266,135.988 135.266,136.822 141.5,137C 148.679,137.821 155.679,137.655 162.5,136.5C 178.511,135.163 193.845,131.163 208.5,124.5C 210.403,124.204 212.07,123.537 213.5,122.5C 213.5,122.167 213.5,121.833 213.5,121.5C 216.167,120.833 218.833,120.167 221.5,119.5C 225.9,124.037 231.234,127.037 237.5,128.5C 238.919,129.451 240.585,129.784 242.5,129.5C 243.708,130.234 245.041,130.567 246.5,130.5C 246.719,131.675 246.386,132.675 245.5,133.5C 242.071,135.539 238.737,137.539 235.5,139.5C 232.9,140.468 230.566,141.801 228.5,143.5C 225.482,143.704 222.482,144.037 219.5,144.5C 219.5,145.5 219.5,146.5 219.5,147.5C 201.452,153.037 183.119,157.037 164.5,159.5C 159.5,159.5 154.5,159.5 149.5,159.5C 149.318,157.325 148.651,155.325 147.5,153.5C 147.543,152.584 147.876,151.917 148.5,151.5C 149.67,153.279 151.336,154.279 153.5,154.5C 153.5,153.167 153.5,151.833 153.5,150.5C 154.167,151.5 154.833,152.5 155.5,153.5C 155.842,154.338 156.508,154.672 157.5,154.5C 158.167,151.167 158.833,147.833 159.5,144.5C 160.334,147.836 161.834,150.836 164,153.5C 166.232,150.484 167.899,147.151 169,143.5C 170.316,146.688 170.816,150.022 170.5,153.5C 173.673,153.599 176.673,152.932 179.5,151.5C 177.229,150.637 174.895,150.637 172.5,151.5C 172.5,150.167 172.5,148.833 172.5,147.5C 179.049,147.093 179.049,146.093 172.5,144.5C 174.167,143.833 175.833,143.167 177.5,142.5C 170.152,139.868 165.652,142.201 164,149.5C 162.878,147.593 162.045,145.593 161.5,143.5C 160.791,142.596 159.791,142.263 158.5,142.5C 158.53,141.503 158.03,140.836 157,140.5C 151.608,140.696 146.108,140.696 140.5,140.5C 140.5,141.5 140.5,142.5 140.5,143.5C 138.938,145.372 137.938,147.705 137.5,150.5C 136.516,147.572 136.183,144.572 136.5,141.5C 133.79,139.369 130.624,138.036 127,137.5C 123.39,138.448 119.89,139.448 116.5,140.5C 115.686,142.631 115.186,144.964 115,147.5C 113.989,148.337 112.822,148.67 111.5,148.5C 111.82,145.102 111.487,141.768 110.5,138.5C 108.701,142.118 108.368,145.785 109.5,149.5C 109.586,150.496 109.252,151.329 108.5,152C 103.806,152.564 99.1398,152.397 94.5,151.5C 89.2331,150.411 84.2331,148.744 79.5,146.5C 72.7774,143.641 66.1108,140.474 59.5,137C 56.9568,135.618 54.9568,133.785 53.5,131.5C 54.6715,130.655 56.0048,129.989 57.5,129.5C 58.1667,129.5 58.8333,129.5 59.5,129.5C 66.294,127.469 72.294,124.136 77.5,119.5 Z"/></g>
<g><path style="opacity:1" fill="#fdeaeb" d="M 157.5,143.5 C 157.5,147.167 157.5,150.833 157.5,154.5C 156.508,154.672 155.842,154.338 155.5,153.5C 154.931,149.671 155.598,146.337 157.5,143.5 Z"/></g>
<g><path style="opacity:1" fill="#d4797b" d="M 158.5,142.5 C 159.791,142.263 160.791,142.596 161.5,143.5C 160.508,143.328 159.842,143.662 159.5,144.5C 158.833,147.833 158.167,151.167 157.5,154.5C 157.5,150.833 157.5,147.167 157.5,143.5C 158.167,143.5 158.5,143.167 158.5,142.5 Z"/></g>
<g><path style="opacity:1" fill="#f8e4e4" d="M 193.5,136.5 C 195.681,136.284 197.347,137.117 198.5,139C 190.784,140.035 190.951,141.202 199,142.5C 199.865,147.67 197.699,149.503 192.5,148C 192.043,147.586 191.709,147.086 191.5,146.5C 192.533,145.548 193.7,145.548 195,146.5C 196.28,146.387 197.113,145.72 197.5,144.5C 195.314,143.779 193.147,143.113 191,142.5C 190.034,139.66 190.867,137.66 193.5,136.5 Z"/></g>
<g><path style="opacity:1" fill="#f8e3e4" d="M 159.5,144.5 C 159.842,143.662 160.508,143.328 161.5,143.5C 162.045,145.593 162.878,147.593 164,149.5C 165.652,142.201 170.152,139.868 177.5,142.5C 175.833,143.167 174.167,143.833 172.5,144.5C 179.049,146.093 179.049,147.093 172.5,147.5C 172.5,148.833 172.5,150.167 172.5,151.5C 174.895,150.637 177.229,150.637 179.5,151.5C 176.673,152.932 173.673,153.599 170.5,153.5C 170.816,150.022 170.316,146.688 169,143.5C 167.899,147.151 166.232,150.484 164,153.5C 161.834,150.836 160.334,147.836 159.5,144.5 Z"/></g>
<g><path style="opacity:1" fill="#f9dbdc" d="M 116.5,140.5 C 117.649,140.791 118.316,141.624 118.5,143C 118.916,150.095 115.916,152.262 109.5,149.5C 108.368,145.785 108.701,142.118 110.5,138.5C 111.487,141.768 111.82,145.102 111.5,148.5C 112.822,148.67 113.989,148.337 115,147.5C 115.186,144.964 115.686,142.631 116.5,140.5 Z"/></g>
<g><path style="opacity:1" fill="#fde7e5" d="M 180.5,139.5 C 182.857,139.337 185.19,139.503 187.5,140C 188.767,141.796 188.767,143.629 187.5,145.5C 188.313,146.814 189.313,147.981 190.5,149C 189.5,149.667 188.5,149.667 187.5,149C 183.295,145.415 181.962,146.248 183.5,151.5C 182.5,151.5 181.5,151.5 180.5,151.5C 179.994,147.396 179.994,143.396 180.5,139.5 Z"/></g>
<g><path style="opacity:1" fill="#d25650" d="M 182.5,141.5 C 186.999,141.935 187.332,142.935 183.5,144.5C 181.197,144.124 180.863,143.124 182.5,141.5 Z"/></g>
<g><path style="opacity:1" fill="#f9d6d6" d="M 91.5,133.5 C 92.8333,133.5 94.1667,133.5 95.5,133.5C 95.8242,137.555 95.4909,141.555 94.5,145.5C 92.607,141.309 89.9404,140.642 86.5,143.5C 86.1667,143 85.8333,142.5 85.5,142C 87.7299,139.28 89.7299,136.446 91.5,133.5 Z"/></g>
<g><path style="opacity:1" fill="#fcdee3" d="M 199.5,135.5 C 202.266,137.51 203.933,140.343 204.5,144C 203.99,145.826 203.156,145.993 202,144.5C 200.855,141.568 200.022,138.568 199.5,135.5 Z"/></g>
<g><path style="opacity:1" fill="#f9dadb" d="M 99.5,135.5 C 102.528,135.965 105.362,136.965 108,138.5C 106.345,141.644 105.512,144.977 105.5,148.5C 103.244,147.579 102.244,145.912 102.5,143.5C 101.5,143.5 100.5,143.5 99.5,143.5C 98.8826,147.422 98.2159,147.422 97.5,143.5C 97.968,140.767 98.6347,138.1 99.5,135.5 Z"/></g>
<g><path style="opacity:1" fill="#d22f2d" d="M 101.5,138.5 C 103.346,138.222 104.68,138.889 105.5,140.5C 103.167,141.941 101.834,141.275 101.5,138.5 Z"/></g>
<g><path style="opacity:1" fill="#991f23" d="M 123.5,134.5 C 131.512,135.057 139.512,135.723 147.5,136.5C 148.833,136.5 150.167,136.5 151.5,136.5C 155.167,136.5 158.833,136.5 162.5,136.5C 155.679,137.655 148.679,137.821 141.5,137C 135.266,136.822 129.266,135.988 123.5,134.5 Z"/></g>
<g><path style="opacity:1" fill="#f9dddf" d="M 217.5,127.5 C 218.5,127.5 219.5,127.5 220.5,127.5C 220.41,129.696 220.077,131.863 219.5,134C 219.493,135.812 220.16,137.312 221.5,138.5C 221,138.833 220.5,139.167 220,139.5C 218.327,136.329 215.827,133.995 212.5,132.5C 210.616,133.115 209.616,134.448 209.5,136.5C 210.182,138.841 210.849,141.174 211.5,143.5C 210.325,143.719 209.325,143.386 208.5,142.5C 208.493,138.284 206.493,135.784 202.5,135C 205.984,133.53 209.484,132.03 213,130.5C 216.537,133.436 218.037,132.436 217.5,127.5 Z"/></g>
<g><path style="opacity:1" fill="#fce1e0" d="M 80.5,129.5 C 84.2446,129.203 86.9113,130.703 88.5,134C 87.3331,137.389 85.1664,138.223 82,136.5C 80.8319,137.509 79.6652,138.509 78.5,139.5C 78.1667,139 77.8333,138.5 77.5,138C 78.7345,135.217 79.7345,132.384 80.5,129.5 Z"/></g>
<g><path style="opacity:1" fill="#ca252b" d="M 82.5,131.5 C 86.31,132.754 86.31,133.754 82.5,134.5C 82.5,133.5 82.5,132.5 82.5,131.5 Z"/></g>
<g><path style="opacity:1" fill="#d03232" d="M 140.5,143.5 C 140.663,145.857 140.497,148.19 140,150.5C 138.921,152.394 137.587,152.727 136,151.5C 135.821,148.447 135.321,145.447 134.5,142.5C 132.994,146.76 133.327,150.76 135.5,154.5C 134.504,154.586 133.671,154.252 133,153.5C 132.501,149.179 132.334,144.846 132.5,140.5C 130.08,140.708 127.747,140.374 125.5,139.5C 123.898,142.338 123.398,145.338 124,148.5C 125.663,146.842 126.496,144.842 126.5,142.5C 130.252,142.501 131.252,144.167 129.5,147.5C 128.719,146.271 128.219,144.938 128,143.5C 127.338,145.813 126.838,148.146 126.5,150.5C 125.167,150.5 123.833,150.5 122.5,150.5C 122.817,147.428 122.484,144.428 121.5,141.5C 120.461,145.105 119.795,148.772 119.5,152.5C 122.385,152.806 125.052,152.473 127.5,151.5C 129.048,151.821 129.715,152.821 129.5,154.5C 126.603,154.681 123.77,154.348 121,153.5C 119.189,154.424 119.355,155.257 121.5,156C 126.844,156.39 132.178,156.89 137.5,157.5C 139.333,157.585 140.666,158.252 141.5,159.5C 137.833,159.5 134.167,159.5 130.5,159.5C 123.739,157.841 116.739,156.674 109.5,156C 104.244,154.942 99.2441,153.442 94.5,151.5C 99.1398,152.397 103.806,152.564 108.5,152C 109.252,151.329 109.586,150.496 109.5,149.5C 115.916,152.262 118.916,150.095 118.5,143C 118.316,141.624 117.649,140.791 116.5,140.5C 119.89,139.448 123.39,138.448 127,137.5C 130.624,138.036 133.79,139.369 136.5,141.5C 136.183,144.572 136.516,147.572 137.5,150.5C 137.938,147.705 138.938,145.372 140.5,143.5 Z"/></g>
<g><path style="opacity:1" fill="#fbdcde" d="M 126.5,150.5 C 127.167,150.5 127.5,150.833 127.5,151.5C 125.052,152.473 122.385,152.806 119.5,152.5C 119.795,148.772 120.461,145.105 121.5,141.5C 122.484,144.428 122.817,147.428 122.5,150.5C 123.833,150.5 125.167,150.5 126.5,150.5 Z"/></g>
<g><path style="opacity:1" fill="#302763" d="M 228.5,143.5 C 228.244,145.792 228.577,147.959 229.5,150C 235.522,151.666 241.522,153.333 247.5,155C 252.833,155.667 258.167,155.667 263.5,155C 271.428,153.29 279.428,152.123 287.5,151.5C 264.361,159.296 241.694,157.963 219.5,147.5C 219.5,146.5 219.5,145.5 219.5,144.5C 222.482,144.037 225.482,143.704 228.5,143.5 Z"/></g>
</svg>
